<?xml version="1.0" encoding="iso-8859-1"?>
<!-- Uploaded to: SVG Repo, www.svgrepo.com, Generator: SVG Repo Mixer Tools -->
<svg height="800px" width="800px" version="1.1" id="Layer_1" xmlns="http://www.w3.org/2000/svg" xmlns:xlink="http://www.w3.org/1999/xlink" 
	 viewBox="0 0 392.598 392.598" xml:space="preserve">
<g>
	<path style="fill:#FFC10D;" d="M21.851,93.834v68.59h41.244c6.012,0,10.925,4.848,10.925,10.925
		c0,6.012-4.848,10.925-10.925,10.925H21.851v19.394h18.877c6.012,0,10.925,4.848,10.925,10.925c0,6.012-4.848,10.925-10.925,10.925
		H21.851v73.05l102.4-102.335L21.851,93.834z"/>
	<path style="fill:#FFC10D;" d="M37.236,314.02h318.125L253.026,211.685l-48.937,48.937c-4.267,4.267-11.119,4.267-15.451,0
		l-49.002-49.002L37.236,314.02z"/>
	<polygon style="fill:#FFC10D;" points="370.812,298.634 370.812,93.834 268.412,196.234 	"/>
</g>
<polygon style="fill:#56ACE0;" points="196.331,237.479 355.362,78.448 37.301,78.448 "/>
<path style="fill:#194F82;" d="M381.737,56.663H10.925C4.913,56.663,0,61.511,0,67.588V325.01c0,6.012,4.848,10.925,10.925,10.925
	h370.747c6.012,0,10.925-4.848,10.925-10.925V67.588C392.598,61.576,387.749,56.663,381.737,56.663z M204.089,260.622l49.002-49.002
	l102.4,102.4H37.236l102.4-102.4l49.002,49.002C192.84,264.824,199.822,264.824,204.089,260.622z M21.851,225.519h18.877
	c6.012,0,10.925-4.848,10.925-10.925c0-6.012-4.848-10.925-10.925-10.925H21.851v-19.394h41.244c6.012,0,10.925-4.848,10.925-10.925
	c0-6.012-4.848-10.925-10.925-10.925H21.851V93.899l102.4,102.335L21.851,298.57V225.519z M370.812,298.634l-102.4-102.4
	l102.4-102.4V298.634z M196.331,237.479L37.301,78.448h318.125L196.331,237.479z"/>
</svg>