<?xml version="1.0" encoding="iso-8859-1"?>
<!-- Uploaded to: SVG Repo, www.svgrepo.com, Generator: SVG Repo Mixer Tools -->
<svg height="800px" width="800px" version="1.1" id="Layer_1" xmlns="http://www.w3.org/2000/svg" xmlns:xlink="http://www.w3.org/1999/xlink" 
	 viewBox="0 0 392.598 392.598" xml:space="preserve">
<path style="fill:#56ACE0;" d="M101.883,116.234c0,40.792,61.673,137.697,94.448,184.76c32.776-47.063,94.448-144.032,94.448-184.76
	c0-52.105-42.343-94.448-94.448-94.448S101.883,64.129,101.883,116.234z"/>
<path style="fill:#FFFFFF;" d="M249.6,116.234c0-29.349-23.855-53.269-53.269-53.269s-53.269,23.855-53.269,53.269
	s23.855,53.269,53.269,53.269C225.681,169.438,249.6,145.584,249.6,116.234z"/>
<g>
	<path style="fill:#194F82;" d="M381.737,308.945H217.341c28.186-40.986,95.289-143.515,95.289-192.711
		C312.566,52.17,260.396,0,196.331,0S80.097,52.17,80.097,116.234c0,53.786,80.162,171.313,102.012,202.473l-51.588,51.976H10.925
		C4.913,370.683,0,375.531,0,381.608c0,6.012,4.848,10.99,10.925,10.99h124.121c2.909,0,5.689-1.164,7.758-3.232l58.053-58.57
		h180.816c6.012,0,10.925-4.848,10.925-10.925C392.598,313.794,387.749,308.945,381.737,308.945z M196.331,300.994
		c-32.776-47.063-94.448-143.968-94.448-184.76c0-52.105,42.343-94.448,94.448-94.448s94.448,42.343,94.448,94.448
		C290.78,156.962,229.107,253.931,196.331,300.994z"/>
	<path style="fill:#194F82;" d="M196.331,41.18c-41.438,0-75.055,33.681-75.055,75.055c0,41.438,33.681,75.055,75.055,75.055
		c41.438,0,75.055-33.681,75.055-75.055S237.77,41.18,196.331,41.18z M196.331,169.438c-29.35,0-53.269-23.855-53.269-53.269
		s23.855-53.269,53.269-53.269S249.6,86.756,249.6,116.17S225.681,169.438,196.331,169.438z"/>
</g>
<path style="fill:#FFC10D;" d="M196.331,147.653c-17.325,0-31.418-14.158-31.418-31.418s14.093-31.418,31.418-31.418
	s31.418,14.093,31.418,31.418S213.657,147.653,196.331,147.653z"/>
</svg>